<?xml version="1.0" encoding="UTF-8" standalone="no"?>
<!-- Creator: CorelDRAW X8 -->

<svg
   xml:space="preserve"
   width="210mm"
   height="297mm"
   version="1.1"
   style="shape-rendering:geometricPrecision; text-rendering:geometricPrecision; image-rendering:optimizeQuality; fill-rule:evenodd; clip-rule:evenodd"
   viewBox="0 0 21000 29700"
   id="svg561"
   sodipodi:docname="mn_fascia.svg"
   inkscape:version="1.1.2 (b8e25be833, 2022-02-05)"
   xmlns:inkscape="http://www.inkscape.org/namespaces/inkscape"
   xmlns:sodipodi="http://sodipodi.sourceforge.net/DTD/sodipodi-0.dtd"
   xmlns="http://www.w3.org/2000/svg"
   xmlns:svg="http://www.w3.org/2000/svg"><sodipodi:namedview
   id="namedview563"
   pagecolor="#ffffff"
   bordercolor="#666666"
   borderopacity="1.0"
   inkscape:pageshadow="2"
   inkscape:pageopacity="0.0"
   inkscape:pagecheckerboard="0"
   inkscape:document-units="mm"
   showgrid="false"
   inkscape:zoom="0.69130191"
   inkscape:cx="396.3536"
   inkscape:cy="561.25984"
   inkscape:window-width="1920"
   inkscape:window-height="1027"
   inkscape:window-x="-8"
   inkscape:window-y="-8"
   inkscape:window-maximized="1"
   inkscape:current-layer="Layer_x0020_1" />
 <defs
   id="defs537">
  <style
   type="text/css"
   id="style535">
   <![CDATA[
    .str0 {stroke:#FFED00;stroke-width:20}
    .fil0 {fill:none}
   ]]>
  </style>
 </defs>
 <g
   id="Layer_x0020_1"
   inkscape:label="Layer 1">
  <metadata
   id="CorelCorpID_0Corel-Layer" />
  <path
   id="rect540"
   class="fil0 str0"
   style="fill:none;stroke:#ffed00;stroke-width:20"
   d="m 8027,12695 h 3946 c 247.638,0 447,201.146 447,451 v 3108 c 0,249.854 -199.362,451 -447,451 H 8027 c -247.638,0 -447,-201.146 -447,-451 v -3108 c 0,-249.854 199.362,-451 447,-451 z" />
  <path
   id="circle542"
   class="fil0 str0"
   style="fill:none;stroke:#ffed00;stroke-width:20"
   d="m 12154,13160 a 160,160 0 0 1 -160,160 160,160 0 0 1 -160,-160 160,160 0 0 1 160,-160 160,160 0 0 1 160,160 z" />
  <path
   id="circle544"
   class="fil0 str0"
   style="fill:none;stroke:#ffed00;stroke-width:20"
   d="m 12151,16232 a 160,160 0 0 1 -160,160 160,160 0 0 1 -160,-160 160,160 0 0 1 160,-160 160,160 0 0 1 160,160 z" />
  <path
   id="circle546"
   class="fil0 str0"
   style="fill:none;stroke:#ffed00;stroke-width:20"
   d="m 8182,16232 a 160,160 0 0 1 -160,160 160,160 0 0 1 -160,-160 160,160 0 0 1 160,-160 160,160 0 0 1 160,160 z" />
  <path
   id="circle548"
   class="fil0 str0"
   style="fill:none;stroke:#ffed00;stroke-width:20"
   d="m 9034,14763 a 300,300 0 0 1 -300,300 300,300 0 0 1 -300,-300 300,300 0 0 1 300,-300 300,300 0 0 1 300,300 z" />
  <path
   id="circle550"
   class="fil0 str0"
   style="fill:none;stroke:#ffed00;stroke-width:20"
   d="m 10312,14763 a 300,300 0 0 1 -300,300 300,300 0 0 1 -300,-300 300,300 0 0 1 300,-300 300,300 0 0 1 300,300 z" />
  <path
   id="circle552"
   class="fil0 str0"
   style="fill:none;stroke:#ffed00;stroke-width:20"
   d="m 9034,15654 a 300,300 0 0 1 -300,300 300,300 0 0 1 -300,-300 300,300 0 0 1 300,-300 300,300 0 0 1 300,300 z" />
  <path
   id="circle554"
   class="fil0 str0"
   style="fill:none;stroke:#ffed00;stroke-width:20"
   d="m 10312,15654 a 300,300 0 0 1 -300,300 300,300 0 0 1 -300,-300 300,300 0 0 1 300,-300 300,300 0 0 1 300,300 z" />
  <path
   id="circle556"
   class="fil0 str0"
   style="fill:none;stroke:#ffed00;stroke-width:20"
   d="m 11582,15654 a 300,300 0 0 1 -300,300 300,300 0 0 1 -300,-300 300,300 0 0 1 300,-300 300,300 0 0 1 300,300 z" />
  <path
   id="circle558"
   class="fil0 str0"
   style="fill:none;stroke:#ffed00;stroke-width:20"
   d="m 8185,13163 a 160,160 0 0 1 -160,160 160,160 0 0 1 -160,-160 160,160 0 0 1 160,-160 160,160 0 0 1 160,160 z" />
 </g>
</svg>
