<?xml version="1.0" encoding="UTF-8"?>
<!DOCTYPE svg PUBLIC "-//W3C//DTD SVG 1.1//EN" "http://www.w3.org/Graphics/SVG/1.1/DTD/svg11.dtd">
<!-- Creator: CorelDRAW X8 -->
<svg xmlns="http://www.w3.org/2000/svg" xml:space="preserve" width="210mm" height="297mm" version="1.1" style="shape-rendering:geometricPrecision; text-rendering:geometricPrecision; image-rendering:optimizeQuality; fill-rule:evenodd; clip-rule:evenodd"
viewBox="0 0 21000 29700"
 xmlns:xlink="http://www.w3.org/1999/xlink">
 <defs>
  <style type="text/css">
   <![CDATA[
    .str0 {stroke:#2B2A29;stroke-width:7.62}
    .fil0 {fill:none}
   ]]>
  </style>
 </defs>
 <g id="Layer_x0020_1">
  <metadata id="CorelCorpID_0Corel-Layer"/>
  <g id="_2350980872160">
   <rect class="fil0 str0" x="8575" y="13272" width="74.08" height="450" rx="100" ry="147"/>
   <rect class="fil0 str0" x="8675" y="13307" width="74.08" height="380" rx="100" ry="124"/>
   <rect class="fil0 str0" x="8475" y="13307" width="74.08" height="380" rx="100" ry="124"/>
   <rect class="fil0 str0" x="8775" y="13397" width="74.08" height="200" rx="100" ry="65"/>
   <rect class="fil0 str0" x="8375" y="13397" width="74.08" height="200" rx="100" ry="65"/>
  </g>
  <g id="_2350980871584">
   <rect class="fil0 str0" x="11368" y="13263" width="74.08" height="450" rx="100" ry="147"/>
   <rect class="fil0 str0" x="11468" y="13298" width="74.08" height="380" rx="100" ry="124"/>
   <rect class="fil0 str0" x="11268" y="13298" width="74.08" height="380" rx="100" ry="124"/>
   <rect class="fil0 str0" x="11568" y="13388" width="74.08" height="200" rx="100" ry="65"/>
   <rect class="fil0 str0" x="11168" y="13388" width="74.08" height="200" rx="100" ry="65"/>
  </g>
  <circle class="fil0 str0" cx="11994" cy="13160" r="160"/>
  <circle class="fil0 str0" cx="11991" cy="16232" r="160"/>
  <circle class="fil0 str0" cx="8022" cy="16232" r="160"/>
  <circle class="fil0 str0" cx="8734" cy="14763" r="300"/>
  <circle class="fil0 str0" cx="10012" cy="14763" r="300"/>
  <circle class="fil0 str0" cx="8734" cy="15654" r="300"/>
  <circle class="fil0 str0" cx="10012" cy="15654" r="300"/>
  <circle class="fil0 str0" cx="11282" cy="15654" r="300"/>
  <circle class="fil0 str0" cx="8025" cy="13163" r="160"/>
 </g>
</svg>
