<?xml version="1.0" encoding="UTF-8" standalone="no"?>
<!-- Creator: CorelDRAW X8 -->

<svg
   xml:space="preserve"
   width="210mm"
   height="297mm"
   version="1.1"
   style="shape-rendering:geometricPrecision; text-rendering:geometricPrecision; image-rendering:optimizeQuality; fill-rule:evenodd; clip-rule:evenodd"
   viewBox="0 0 21000 29700"
   id="svg753"
   sodipodi:docname="mn_mask.svg"
   inkscape:version="1.1.2 (b8e25be833, 2022-02-05)"
   xmlns:inkscape="http://www.inkscape.org/namespaces/inkscape"
   xmlns:sodipodi="http://sodipodi.sourceforge.net/DTD/sodipodi-0.dtd"
   xmlns="http://www.w3.org/2000/svg"
   xmlns:svg="http://www.w3.org/2000/svg"><sodipodi:namedview
   id="namedview755"
   pagecolor="#ffffff"
   bordercolor="#666666"
   borderopacity="1.0"
   inkscape:pageshadow="2"
   inkscape:pageopacity="0.0"
   inkscape:pagecheckerboard="0"
   inkscape:document-units="mm"
   showgrid="false"
   inkscape:zoom="0.64052329"
   inkscape:cx="396.55076"
   inkscape:cy="560.47923"
   inkscape:window-width="1920"
   inkscape:window-height="1027"
   inkscape:window-x="-8"
   inkscape:window-y="-8"
   inkscape:window-maximized="1"
   inkscape:current-layer="Layer_x0020_1" />
 <defs
   id="defs725">
  <style
   type="text/css"
   id="style723">
   <![CDATA[
    .str1 {stroke:#2B2A29;stroke-width:20}
    .str0 {stroke:#E51A4B;stroke-width:7.62}
    .fil0 {fill:none}
    .fil1 {fill:#2B2A29}
   ]]>
  </style>
 
   
   
   
   
   
  
   
   
   
   
   
  </defs>
 <g
   id="Layer_x0020_1"
   inkscape:label="Layer 1">
  <metadata
   id="CorelCorpID_0Corel-Layer" />
  <path
   id="rect728"
   class="fil0 str0"
   style="fill:none;stroke:#e51a4b;stroke-width:7.62"
   d="m 8612.04,13272 c 20.5202,0 37.04,65.562 37.04,147 v 156 c 0,81.438 -16.5198,147 -37.04,147 -20.5202,0 -37.04,-65.562 -37.04,-147 v -156 c 0,-81.438 16.5198,-147 37.04,-147 z" /><path
   id="rect730"
   class="fil0 str0"
   style="fill:none;stroke:#e51a4b;stroke-width:7.62"
   d="m 8712.04,13307 c 20.5202,0 37.04,55.304 37.04,124 v 132 c 0,68.696 -16.5198,124 -37.04,124 -20.5202,0 -37.04,-55.304 -37.04,-124 v -132 c 0,-68.696 16.5198,-124 37.04,-124 z" /><path
   id="rect732"
   class="fil0 str0"
   style="fill:none;stroke:#e51a4b;stroke-width:7.62"
   d="m 8512.04,13307 c 20.5202,0 37.04,55.304 37.04,124 v 132 c 0,68.696 -16.5198,124 -37.04,124 -20.5202,0 -37.04,-55.304 -37.04,-124 v -132 c 0,-68.696 16.5198,-124 37.04,-124 z" /><path
   id="rect734"
   class="fil0 str0"
   style="fill:none;stroke:#e51a4b;stroke-width:7.62"
   d="m 8812.04,13397 c 20.5202,0 37.04,28.99 37.04,65 v 70 c 0,36.01 -16.5198,65 -37.04,65 -20.5202,0 -37.04,-28.99 -37.04,-65 v -70 c 0,-36.01 16.5198,-65 37.04,-65 z" /><path
   id="rect736"
   class="fil0 str0"
   style="fill:none;stroke:#e51a4b;stroke-width:7.62"
   d="m 8412.04,13397 c 20.5202,0 37.04,28.99 37.04,65 v 70 c 0,36.01 -16.5198,65 -37.04,65 -20.5202,0 -37.04,-28.99 -37.04,-65 v -70 c 0,-36.01 16.5198,-65 37.04,-65 z" />
  <path
   id="rect739"
   class="fil0 str0"
   style="fill:none;stroke:#e51a4b;stroke-width:7.62"
   d="m 11405.04,13263 c 20.52,0 37.04,65.562 37.04,147 v 156 c 0,81.438 -16.52,147 -37.04,147 -20.52,0 -37.04,-65.562 -37.04,-147 v -156 c 0,-81.438 16.52,-147 37.04,-147 z" /><path
   id="rect741"
   class="fil0 str0"
   style="fill:none;stroke:#e51a4b;stroke-width:7.62"
   d="m 11505.04,13298 c 20.52,0 37.04,55.304 37.04,124 v 132 c 0,68.696 -16.52,124 -37.04,124 -20.52,0 -37.04,-55.304 -37.04,-124 v -132 c 0,-68.696 16.52,-124 37.04,-124 z" /><path
   id="rect743"
   class="fil0 str0"
   style="fill:none;stroke:#e51a4b;stroke-width:7.62"
   d="m 11305.04,13298 c 20.52,0 37.04,55.304 37.04,124 v 132 c 0,68.696 -16.52,124 -37.04,124 -20.52,0 -37.04,-55.304 -37.04,-124 v -132 c 0,-68.696 16.52,-124 37.04,-124 z" /><path
   id="rect745"
   class="fil0 str0"
   style="fill:none;stroke:#e51a4b;stroke-width:7.62"
   d="m 11605.04,13388 c 20.52,0 37.04,28.99 37.04,65 v 70 c 0,36.01 -16.52,65 -37.04,65 -20.52,0 -37.04,-28.99 -37.04,-65 v -70 c 0,-36.01 16.52,-65 37.04,-65 z" /><path
   id="rect747"
   class="fil0 str0"
   style="fill:none;stroke:#e51a4b;stroke-width:7.62"
   d="m 11205.04,13388 c 20.52,0 37.04,28.99 37.04,65 v 70 c 0,36.01 -16.52,65 -37.04,65 -20.52,0 -37.04,-28.99 -37.04,-65 v -70 c 0,-36.01 16.52,-65 37.04,-65 z" />
  <path
   id="circle750"
   class="fil1 str1"
   style="fill:#2b2a29;stroke:#2b2a29;stroke-width:20"
   d="m 8075,13163 a 50,50 0 0 1 -50,50 50,50 0 0 1 -50,-50 50,50 0 0 1 50,-50 50,50 0 0 1 50,50 z" />
 </g>
</svg>
