<?xml version="1.0" encoding="UTF-8" standalone="no"?>
<!-- Creator: CorelDRAW X8 -->

<svg
   xml:space="preserve"
   width="210mm"
   height="297mm"
   version="1.1"
   style="shape-rendering:geometricPrecision; text-rendering:geometricPrecision; image-rendering:optimizeQuality; fill-rule:evenodd; clip-rule:evenodd"
   viewBox="0 0 21000 29700"
   id="svg937"
   sodipodi:docname="mn_silk.svg"
   inkscape:version="1.1.2 (b8e25be833, 2022-02-05)"
   xmlns:inkscape="http://www.inkscape.org/namespaces/inkscape"
   xmlns:sodipodi="http://sodipodi.sourceforge.net/DTD/sodipodi-0.dtd"
   xmlns="http://www.w3.org/2000/svg"
   xmlns:svg="http://www.w3.org/2000/svg"><sodipodi:namedview
   id="namedview939"
   pagecolor="#ffffff"
   bordercolor="#666666"
   borderopacity="1.0"
   inkscape:pageshadow="2"
   inkscape:pageopacity="0.0"
   inkscape:pagecheckerboard="0"
   inkscape:document-units="mm"
   showgrid="false"
   inkscape:zoom="0.64052329"
   inkscape:cx="396.55076"
   inkscape:cy="560.47923"
   inkscape:window-width="1920"
   inkscape:window-height="1027"
   inkscape:window-x="-8"
   inkscape:window-y="-8"
   inkscape:window-maximized="1"
   inkscape:current-layer="Layer_x0020_1" />
 <defs
   id="defs879">
  <style
   type="text/css"
   id="style877">
   <![CDATA[
    .str3 {stroke:#2B2A29;stroke-width:50}
    .str0 {stroke:#2B2A29;stroke-width:20}
    .str1 {stroke:#2B2A29;stroke-width:10}
    .str2 {stroke:#2B2A29;stroke-width:7.62}
    .fil2 {fill:none}
    .fil1 {fill:#FEFEFE}
    .fil0 {fill:#2B2A29}
   ]]>
  </style>
 
   
   
   
   
   
  
   
   
   
  
    
    
   </defs>
 <g
   id="Layer_x0020_1"
   inkscape:label="Layer 1">
  <metadata
   id="CorelCorpID_0Corel-Layer" />
  <path
   id="polygon882"
   class="fil0 str0"
   style="fill:#2b2a29;stroke:#2b2a29;stroke-width:20"
   d="m 10393,13312 h 400 l -200,-400 z" />
  <path
   id="polygon884"
   class="fil0 str0"
   style="fill:#2b2a29;stroke:#2b2a29;stroke-width:20"
   d="m 9229,12891 h 400 l -200,400 z" />
  <path
   class="fil0 str1"
   d="M10972 14275l640 0c44,0 79,35 79,79l0 650c0,44 -35,79 -79,79l-640 0c-44,0 -79,-35 -79,-79l0 -650c0,-44 35,-79 79,-79z"
   id="path886" />
  <path
   id="polygon888"
   class="fil1 str1"
   style="fill:#fefefe;stroke:#2b2a29;stroke-width:10"
   d="m 11086,14344 h -14 v 15 h -11 v 11 h -11 v 14 h -14 v 22 h -11 v 467 h 11 v 11 h 14 v 18 h 11 v 10 h 11 v 26 h 25 v 11 h 15 v 14 h 14 v 11 h 11 v 15 h 15 v 10 h 36 v 11 h 36 v 15 h 137 v -15 h 26 v -11 h 25 v -10 h 40 v -15 h 25 v -11 h 11 v -14 h 15 v -11 h 11 v -26 h 14 v -10 h 11 v -66 h 11 v -86 h 14 v -330 h -14 v -25 h -11 v -25 h -11 v -11 h -14 v -15 h -11 v -11 h -417 z" />
  <path
   id="polygon890"
   class="fil0 str2"
   style="fill:#2b2a29;stroke:#2b2a29;stroke-width:7.62"
   d="m 11162,14735 h -25 v 15 h -11 v 25 h 11 v 11 h 15 v 25 h 10 v 11 h 11 v 14 h 15 v 11 h 11 v 15 h 14 v 11 h 22 v 11 h 14 v 18 h 40 v 10 h 98 v -10 h 14 v -18 h 26 v -11 h 14 v -11 h 11 v -15 h 14 v -11 h 11 v -25 h 11 v -61 h -11 v -15 h -36 v 40 h -14 v 11 h -26 v -11 h -14 v -40 h -73 v -14 h -36 v 14 h -18 v 25 h -11 v 15 h -14 v -15 h -11 v -25 h -11 v -14 h -51 z" />
  <path
   id="polygon892"
   class="fil0 str2"
   style="fill:#2b2a29;stroke:#2b2a29;stroke-width:7.62"
   d="m 11188,14471 h -26 v 14 h -10 v 113 h 10 v 14 h 62 v -29 h -11 v -36 h 11 v -15 h 11 v -10 h 25 v 10 h 29 v -47 h -11 v -14 h -18 v -11 h -72 z" />
  <path
   id="polygon894"
   class="fil0 str2"
   style="fill:#2b2a29;stroke:#2b2a29;stroke-width:7.62"
   d="m 11361,14485 h -10 v 62 h 25 v -15 h 36 v 15 h 15 v 11 h 14 v 40 h -14 v 14 h -15 v 11 h 65 v -11 h 11 v -127 h -11 v -14 h -116 z" />
  <path
   id="polygon896"
   class="fil0 str0"
   style="fill:#2b2a29;stroke:#2b2a29;stroke-width:20"
   d="m 11562,16252 -320,-160 v 320 z" /><path
   id="circle898"
   class="fil0 str0"
   style="fill:#2b2a29;stroke:#2b2a29;stroke-width:20"
   d="m 11202,16252 a 40,40 0 0 1 -40,40 40,40 0 0 1 -40,-40 40,40 0 0 1 40,-40 40,40 0 0 1 40,40 z" /><path
   id="circle900"
   class="fil0 str0"
   style="fill:#2b2a29;stroke:#2b2a29;stroke-width:20"
   d="m 11082,16252 a 40,40 0 0 1 -40,40 40,40 0 0 1 -40,-40 40,40 0 0 1 40,-40 40,40 0 0 1 40,40 z" />
  <path
   id="rect903"
   class="fil0 str0"
   style="fill:#2b2a29;stroke:#2b2a29;stroke-width:20"
   d="m 9847,16085 h 320 v 320 h -320 z" />
  <path
   class="fil0 str0"
   d="M8648 16278l0 128 320 -160 -320 -160 0 112 0 80zm-68 -80l0 -114 -80 0 0 320 80 0 0 -126 0 -80z"
   id="path905" />
  <path
   id="circle907"
   class="fil0 str0"
   style="fill:#2b2a29;stroke:#2b2a29;stroke-width:20"
   d="m 10225,14361 a 40,40 0 0 1 -40,40 40,40 0 0 1 -40,-40 40,40 0 0 1 40,-40 40,40 0 0 1 40,40 z" /><path
   id="circle909"
   class="fil0 str0"
   style="fill:#2b2a29;stroke:#2b2a29;stroke-width:20"
   d="m 10074,14099 a 40,40 0 0 1 -40,40 40,40 0 0 1 -40,-40 40,40 0 0 1 40,-40 40,40 0 0 1 40,40 z" /><path
   id="circle911"
   class="fil0 str0"
   style="fill:#2b2a29;stroke:#2b2a29;stroke-width:20"
   d="m 10246,14243 a 40,40 0 0 1 -40,40 40,40 0 0 1 -40,-40 40,40 0 0 1 40,-40 40,40 0 0 1 40,40 z" /><path
   id="circle913"
   class="fil0 str0"
   style="fill:#2b2a29;stroke:#2b2a29;stroke-width:20"
   d="m 10186,14140 a 40,40 0 0 1 -40,40 40,40 0 0 1 -40,-40 40,40 0 0 1 40,-40 40,40 0 0 1 40,40 z" /><path
   id="polygon915"
   class="fil0 str0"
   style="fill:#2b2a29;stroke:#2b2a29;stroke-width:20"
   d="m 9954,14377 v -63 -40 -57 h -40 v 160 z" /><path
   id="polygon917"
   class="fil0 str0"
   style="fill:#2b2a29;stroke:#2b2a29;stroke-width:20"
   d="m 10014,14277 h -63 -40 -57 v 40 h 160 z" />
  <path
   id="circle922"
   class="fil0 str0"
   style="fill:#2b2a29;stroke:#2b2a29;stroke-width:20"
   d="m 8798,14099 a 40,40 0 0 1 -40,40 40,40 0 0 1 -40,-40 40,40 0 0 1 40,-40 40,40 0 0 1 40,40 z" />
  <path
   id="circle924"
   class="fil0 str0"
   style="fill:#2b2a29;stroke:#2b2a29;stroke-width:20"
   d="m 8970,14243 a 40,40 0 0 1 -40,40 40,40 0 0 1 -40,-40 40,40 0 0 1 40,-40 40,40 0 0 1 40,40 z" />
  <path
   id="circle926"
   class="fil0 str0"
   style="fill:#2b2a29;stroke:#2b2a29;stroke-width:20"
   d="m 8910,14140 a 40,40 0 0 1 -40,40 40,40 0 0 1 -40,-40 40,40 0 0 1 40,-40 40,40 0 0 1 40,40 z" />
  <path
   id="polygon928"
   class="fil0 str0"
   style="fill:#2b2a29;stroke:#2b2a29;stroke-width:20"
   d="m 8635,14277 h -57 v 40 h 160 v -40 h -63 z" />
  <path
   id="circle930"
   class="fil0 str0"
   style="fill:#2b2a29;stroke:#2b2a29;stroke-width:20"
   d="m 8075,13163 a 50,50 0 0 1 -50,50 50,50 0 0 1 -50,-50 50,50 0 0 1 50,-50 50,50 0 0 1 50,50 z" />
  <path
   id="circle932"
   class="fil2 str3"
   style="fill:none;stroke:#2b2a29;stroke-width:50"
   d="m 8912,13497 a 300,300 0 0 1 -300,300 300,300 0 0 1 -300,-300 300,300 0 0 1 300,-300 300,300 0 0 1 300,300 z" />
  <path
   id="circle934"
   class="fil2 str3"
   style="fill:none;stroke:#2b2a29;stroke-width:50"
   d="m 11705,13488 a 300,300 0 0 1 -300,300 300,300 0 0 1 -300,-300 300,300 0 0 1 300,-300 300,300 0 0 1 300,300 z" />
 </g>
</svg>
